<svg viewBox="0 0 143 143" xmlns="http://www.w3.org/2000/svg"><path d="M72.73 2.973c4.65 1.46 8.47 3.886 12.582 6.465 1.79 1.098 3.578 2.196 5.368 3.292l2.706 1.67c3.819 2.338 7.683 4.594 11.552 6.85a5791.84 5791.84 0 0 1 6.1 3.596c1.316.774 2.635 1.545 3.955 2.312a711.37 711.37 0 0 1 5.57 3.28l3.19 1.87L126 34v3l-2.254 1.258c-7.834 4.421-15.56 9.007-23.246 13.68l-3.008 1.825c-4.338 2.646-8.65 5.308-12.87 8.14l-1.923 1.283a466.847 466.847 0 0 0-4.86 3.337C74.456 68.283 72.768 68.585 69 68a71.69 71.69 0 0 1-7.063-4c-8.359-5.141-16.898-9.906-25.5-14.625l-3.986-2.191C29.302 45.454 26.15 43.726 23 42c2.75 2.75 6.84 4.442 10.188 6.375l2.58 1.5c3.558 2.059 7.084 4.053 10.783 5.852C49 57 49 57 50 59c.07 1.54.085 3.083.063 4.625l-.028 2.477L50 68l-7-1v-2h-2v-7l-2.75-.875C35 56 35 56 31 54v32l6 2a149.287 149.287 0 0 1 6.352 3.625l1.761 1.053c1.84 1.102 3.677 2.212 5.512 3.322a4001.18 4001.18 0 0 0 5.533 3.322c1.67 1.001 3.337 2.008 5.005 3.014 2.23 1.308 4.524 2.508 6.837 3.664v10c-4.818-.523-8.238-2.832-12.188-5.438C47.1 104.954 38.1 99.95 29 95l-1 1 1.718 1.003c2.7 1.579 5.397 3.163 8.095 4.747l2.697 1.574C50.16 109.001 59.515 115.01 69 121l1-49c4-2 4-2 7-2v12l6.098-3.66a6515.14 6515.14 0 0 1 5.349-3.204c4.756-2.848 9.501-5.71 14.229-8.605l2.737-1.667a997.361 997.361 0 0 0 5.225-3.205l2.397-1.456 2.106-1.292C117 58 117 58 120 58c1.058 6.009 1.117 11.846 1.063 17.938l-.014 2.939A1870.03 1870.03 0 0 1 121 86l-2.212 1.266c-2.765 1.584-5.53 3.17-8.292 4.758l-3.558 2.04c-7.048 4.033-13.972 8.162-20.72 12.684C84 108 84 108 81 108c-1.585-3.17-1.418-5.51-1-9 2.061-1.897 3.584-2.991 5.984-4.297l1.855-1.092a355.693 355.693 0 0 1 5.911-3.361c1.959-1.13 3.914-2.267 5.868-3.404a404.967 404.967 0 0 1 3.66-2.094c4.587-2.556 4.587-2.556 8.722-5.752.334-3.126.334-3.126 0-6a1819.096 1819.096 0 0 0-31 18l-2.702 1.264c-2.57 1.546-2.57 1.546-2.866 4.463l.08 3.253.049 3.526.126 3.681.069 3.717c.059 3.033.141 6.064.244 9.096l1.598-.959 2.25-1.35 2.502-1.5 5.468-3.282a9824.31 9824.31 0 0 0 12.428-7.464l1.92-1.153a891.084 891.084 0 0 0 3.64-2.203c2.874-1.742 5.764-3.41 8.749-4.952 5.586-2.615 5.586-2.615 9.406-7.125.39-2.129.39-2.129.039-5.012 1.938-.563 1.938-.563 4-1 2.36 2.36 1.78 6.97 1.85 10.139-.151 3.63-.6 5.566-2.966 8.353-3.154 2.134-6.336 3.838-9.759 5.508-1.219.647-2.434 1.3-3.646 1.96a435.636 435.636 0 0 1-7.61 4.01c-6.25 3.244-12.292 6.853-18.369 10.405a6619.802 6619.802 0 0 1-9.201 5.275c-1.802 1.058-3.56 2.19-5.299 3.35-3.272-.352-5.441-1.804-8.094-3.672-5.005-3.43-10.171-6.513-15.406-9.578l-2.875-1.708c-4.566-2.704-9.144-5.346-13.836-7.827l-2.396-1.302a141.999 141.999 0 0 0-4.465-2.314c-1.983-1.087-1.983-1.087-4.928-3.599-.604-2.873-.32-5.02 0-8-.417-2.355-.417-2.355-1-4h2l1-42h-2l.08 2.383c.104 3.58.168 7.16.233 10.742l.126 3.75c.139 10.276.139 10.276-2.959 13.992L16 82c-6.33-11.386-4.193-32.42-1.693-44.774 1.467-4.71 4.368-6.99 8.445-9.489 4.472-2.047 8.99-3.78 13.648-5.359 6.249-2.392 11.709-6.008 17.35-9.566a1909.18 1909.18 0 0 1 6.172-3.73l2.612-1.587L65 6l2.647-1.69C70 3 70 3 72.73 2.972ZM62.988 16.98l-2.082 1.242c-2.201 1.316-4.397 2.64-6.593 3.965l-4.381 2.62C43.247 28.807 36.596 32.854 30 37c2.804 2.954 5.732 4.66 9.32 6.617l1.873 1.028c1.975 1.081 3.953 2.156 5.932 3.23l5.853 3.201c1.262.69 2.526 1.378 3.791 2.064a307.15 307.15 0 0 1 12.437 7.119c2.035 1.033 2.035 1.033 5.356.053L77 59v-3l-2.938-1.625C71 52 71 52 70.38 49.742A68.936 68.936 0 0 1 70 43c1.939.956 3.876 1.915 5.813 2.875l3.269 1.617C82 49 82 49 85 51c2.646-.312 2.646-.312 5-1-1.149-3.446-1.668-3.694-4.676-5.445l-2.26-1.325-2.376-1.355-2.342-1.379C74.906 38.502 71.922 36.817 68 36c.625-1.875.625-1.875 2-4 3.36-1.58 5.102-2.314 8.669-1.065l2.66 1.643 2.921 1.77 3 1.902 3.047 1.855c7.28 4.473 7.28 4.473 9.703 6.895a562.922 562.922 0 0 0 6-3.313l3.375-1.863L112 38v-3c-2.14-1.632-2.14-1.632-5-3.125l-3.309-1.848-1.804-.988a517.047 517.047 0 0 1-5.86-3.285c-3.373-1.913-6.755-3.81-10.142-5.7-1.752-.98-3.498-1.97-5.244-2.96l-2.954-1.657-2.55-1.44c-4.862-2.267-8.018.478-12.149 2.983Z" fill="#53C68C"/><path d="M120 58c1.058 6.009 1.117 11.846 1.063 17.938l-.014 2.939c-.012 2.374-.028 4.749-.049 7.123l-2.212 1.266c-2.765 1.584-5.53 3.17-8.292 4.758l-3.558 2.04c-7.048 4.033-13.972 8.162-20.72 12.684C84 108 84 108 81 108c-1.585-3.17-1.418-5.51-1-9 2.061-1.897 3.584-2.991 5.984-4.297l1.855-1.092a355.693 355.693 0 0 1 5.911-3.361c1.959-1.13 3.914-2.267 5.868-3.404a404.967 404.967 0 0 1 3.66-2.094c4.587-2.556 4.587-2.556 8.722-5.752.334-3.126.334-3.126 0-6a1819.096 1819.096 0 0 0-31 18l-2.695 1.257c-2.578 1.558-2.578 1.558-2.917 4.514l.01 3.323-.046 3.62.023 3.786c0 2.469-.012 4.938-.04 7.406.01 1.645.01 1.645.018 3.323C75 121 75 121 73.647 122.9 72 124 72 124 69.312 123.687L67 123v-2l-3-1 1-2 4 3 1-49c4-2 4-2 7-2v12l6.098-3.66a6515.14 6515.14 0 0 1 5.349-3.204c4.756-2.848 9.501-5.71 14.229-8.605l2.737-1.667a997.361 997.361 0 0 0 5.225-3.205l2.397-1.456 2.106-1.292C117 58 117 58 120 58Z" fill="#53C68C"/><path d="M72.73 2.973c4.65 1.46 8.47 3.886 12.582 6.465 1.79 1.098 3.578 2.196 5.368 3.292l2.706 1.67c3.819 2.338 7.683 4.594 11.552 6.85a5791.84 5791.84 0 0 1 6.1 3.596c1.316.774 2.635 1.545 3.955 2.312a711.37 711.37 0 0 1 5.57 3.28l3.19 1.87L126 34v3a2323.084 2323.084 0 0 1-6.688 3.875l-1.896 1.105c-3.398 1.957-6.717 3.676-10.416 5.02 2.773-3.08 5.063-4.688 9-6l-2-2-2.957 1.75-3.856 2.25-1.947 1.156C100.34 47 100.34 47 97 47v-4l-2.059-.746c-4.164-1.775-7.975-4.11-11.857-6.42-5.345-3.255-5.345-3.255-11.334-3.397L70 33c2.733 3.191 6.252 4.996 9.875 7 4.074 2.282 8.135 4.573 12.125 7-.188 1.875-.188 1.875-1 4-2.125 1.5-2.125 1.5-5 2-2.6-1.065-4.64-2.427-7-4l1-2 2.188 1.5c2.96 1.58 4.525 1.782 7.812 1.5-3.675-4.32-8.333-6.607-13.25-9.25-.84-.459-1.68-.918-2.547-1.39A1191.853 1191.853 0 0 0 68 36c.58-3.037.77-3.809 3.25-5.875C74 29 74 29 76.102 29.621c4.097 1.95 8.058 4.111 12.023 6.317l2.457 1.341 2.363 1.31 2.141 1.184C97 41 97 41 100 44l12-7c-2.587-2.587-4.297-3.847-7.438-5.5-3.073-1.622-5.824-3.355-8.562-5.5l3-5-3.219-2.012-8.5-5.312-2.135-1.325a207.701 207.701 0 0 1-4.33-2.803L78.702 8.16l-1.886-1.265C73.724 5.372 71.211 6.135 68 7l-2.438.563L64 8v2l-1.984 1.066c-9.32 5.042-18.583 10.192-27.395 16.086C33 28 33 28 30 28v2l-6.375 3.438-1.828.986C17.227 36.887 17.227 36.887 15 38v-3l1.898-1.047A1291.038 1291.038 0 0 0 62.534 7.495L65 6l2.647-1.69C70 3 70 3 72.73 2.972ZM55 63c4.751 1.244 9.231 2.767 12 7 .755 4.455.564 8.81.375 13.313l-.082 3.689c-.07 3.001-.17 5.999-.293 8.998-6.985-.31-11.909-3.464-17.813-7l-5.644-3.313-2.5-1.488A68.734 68.734 0 0 0 37 82V72c4.545.553 7.85 2.502 11.625 4.938l1.734 1.091A367.129 367.129 0 0 1 58 83l1-8-6-2c-.195-6.055-.195-6.055 0-8l2-2Z" fill="#B04304"/><path d="M127 38c2 2 2 2 2.227 5.624 0 1.555-.012 3.11-.032 4.665l-.008 2.48c-.011 2.619-.037 5.237-.062 7.856-.01 1.773-.02 3.547-.027 5.32A2994.26 2994.26 0 0 1 129 77h-4c-1.435-2.87-1.112-5.335-1.098-8.54l.01-3.944.025-4.141c.006-1.388.01-2.776.014-4.164.012-3.404.028-6.807.049-10.211l-3.324 2.188L116.312 51l-2.185 1.445C110.182 54.968 107.803 56.352 103 56c-.85 1.393-1.692 2.79-2.5 4.207C97.066 64.312 91.636 66.47 87 69l-3 2h-3c-.254-2.297-.254-2.297 0-5 1.66-1.703 1.66-1.703 4.063-3.25l2.796-1.816L91 59l3.266-2.027C105.02 50.385 116.033 44.223 127 38Z" fill="#53C68C"/><path d="m19 46 5 2c.05 6.069.086 12.138.11 18.207.01 2.065.024 4.13.04 6.195.025 2.966.036 5.932.045 8.899l.032 2.803v2.608l.014 2.295C24 91 24 91 22 94l4 1 1-3c23.466 8.931 23.466 8.931 27 16a75.504 75.504 0 0 1-9.863-4.602l-2.686-1.484-2.764-1.539-2.822-1.563A3507.33 3507.33 0 0 1 29 95l-1 1 1.86 1.098c2.84 1.675 5.677 3.351 8.515 5.027l2.926 1.727C47.549 107.542 53.783 111.257 60 115l-1 2-8-4v-2c-.583-.125-1.167-.25-1.768-.377-2.235-.624-3.938-1.436-5.947-2.584l-2.08-1.18-2.142-1.234-2.131-1.21a336.314 336.314 0 0 1-8.791-5.161C26.067 98.039 24.35 97.435 22 97v6h-1l.063-3.75c.005-2.914-.133-5.46-1.063-8.25h2l1-42h-2l.08 2.383c.104 3.58.168 7.16.233 10.742l.126 3.75c.139 10.276.139 10.276-2.959 13.992L16 82c-2.094-3.416-2.179-5.897-1.977-9.86l.157-3.378.195-3.512.172-3.559c.141-2.897.293-5.794.453-8.691h2v-3h2v-4ZM79.176 17.453l3.136 1.797 3.176 1.766C88 23 88 23 88.918 25.672L89 28c-1 1-1 1-3.25 1.258-4.218-.396-6.853-2.752-10.25-5.14-2.471-1.418-2.471-1.418-5.125-.43-2.542 1.347-2.542 1.347-5.375 3.437-3.101 1.938-4.442 2.294-8 1.875l-1-5c1.58-1.128 3.165-2.253 4.75-3.375l2.672-1.898c5.94-3.979 9-4.364 15.754-1.274Z" fill="#B04304"/><path d="M20 40c4.814-.566 7.203 1.174 11 4l-1 2-7-4c2.75 2.75 6.84 4.442 10.188 6.375l2.58 1.5c3.558 2.059 7.084 4.053 10.783 5.852C49 57 49 57 50 59c.07 1.54.085 3.083.063 4.625l-.028 2.477L50 68l-7-1v-2h-2v-7l-2.688-.875A139.917 139.917 0 0 1 30 54l1-4-1.863-1.023-2.45-1.352-2.425-1.336C22.465 45.265 20.72 44.147 19 43l1-3ZM72.684 2.945c4.917 1.564 9.02 4.207 13.379 6.93l2.681 1.645c1.652 1.013 3.301 2.03 4.948 3.054a130.864 130.864 0 0 0 5.068 2.965C101 19 101 19 101.488 21.262l-.175 2.425-.137 2.45L101 28l2.313.813c2.56 1.131 3.884 2.1 5.687 4.187-3.297-.658-5.841-1.894-8.75-3.563l-2.422-1.378c-.603-.35-1.206-.7-1.828-1.059l3-6-3.219-2.012-8.5-5.312-2.135-1.325a207.701 207.701 0 0 1-4.33-2.803L78.702 8.16l-1.886-1.265C73.724 5.372 71.211 6.135 68 7l-2.438.563L64 8v2l-1.984 1.066c-9.32 5.042-18.583 10.192-27.395 16.086C33 28 33 28 30 28v2l-6.375 3.438-1.828.986C17.227 36.887 17.227 36.887 15 38v-3l1.898-1.047A1291.038 1291.038 0 0 0 62.534 7.495L65 6l2.65-1.69C70 3 70 3 72.684 2.946ZM114 70c.613 3.828.875 7.202 0 11-3.193 3.06-7.435 6-12 6v2l-2.125 1.137C96.905 91.738 93.953 93.368 91 95c-.817.43-1.635.859-2.477 1.3-4.488 2.432-4.488 2.432-6.523 7.013V106h-2c-.374-3.231-.374-3.231 0-7 2.061-1.897 3.584-2.991 5.984-4.297l1.855-1.092a355.693 355.693 0 0 1 5.911-3.361c1.959-1.13 3.914-2.267 5.868-3.404a404.967 404.967 0 0 1 3.66-2.094c4.587-2.556 4.587-2.556 8.722-5.752.334-3.126.334-3.126 0-6a1654.42 1654.42 0 0 0-29.227 16.956c-1.536.904-3.088 1.78-4.644 2.65-2.396 1.37-2.396 1.37-4.129 4.394.147-2.264.147-2.264 1-5 2.433-1.941 2.433-1.941 5.652-3.777l1.74-1.012a495.293 495.293 0 0 1 5.546-3.148c1.212-.696 2.424-1.393 3.634-2.092 2.36-1.361 4.726-2.712 7.095-4.056 3.863-2.22 7.662-4.532 11.445-6.886C112 70 112 70 114 70ZM21 92l1 2c2.025.652 2.025.652 4 1l1-3c23.466 8.931 23.466 8.931 27 16a75.504 75.504 0 0 1-9.863-4.602l-2.686-1.484-2.764-1.539-2.822-1.563A3507.33 3507.33 0 0 1 29 95l-1 1a481096707.286 481096707.286 0 0 1 10.375 6.125l2.926 1.727C47.549 107.542 53.783 111.257 60 115l-1 2-8-4v-2c-.583-.125-1.167-.25-1.768-.377-2.235-.624-3.938-1.436-5.947-2.584l-2.08-1.18-2.142-1.234-2.131-1.21a336.314 336.314 0 0 1-8.791-5.161C26.067 98.039 24.35 97.435 22 97v6h-1V92Z" fill="#B04304"/><path d="M32 45c5.105 1.816 9.717 4.502 14.438 7.125l2.677 1.474c4.09 2.259 8.159 4.542 12.17 6.94l1.922 1.14a606.225 606.225 0 0 1 5.043 3.055c3.177 1.462 3.582 1.426 6.75.266 2.17-1.216 4.27-2.46 6.375-3.781l1.837-1.132c1.933-1.19 3.86-2.388 5.788-3.587 2.538-1.579 5.08-3.15 7.625-4.719l1.755-1.101c2.824-1.74 5.324-3.137 8.62-3.68-2.416 2.659-5.04 4.372-8.113 6.215l-3.033 1.83-3.166 1.892-6.176 3.715-2.932 1.754a85.074 85.074 0 0 0-5.935 4.035C74.344 68.387 72.779 68.633 69 68c-2.697-1.2-5.137-2.73-7.625-4.313a836452985.15 836452985.15 0 0 0-6.856-4.185c-4.461-2.66-9.022-5.14-13.581-7.627l-2.688-1.47A3291.746 3291.746 0 0 0 32 47v-2Z" fill="#B04304"/><path d="M76.102 29.625c4.09 1.94 8.058 4.067 12.023 6.25l2.457 1.316 2.363 1.301 2.141 1.168C97.28 41.196 98.571 42.743 100 45v2h-3v-4l-2.059-.746c-4.164-1.775-7.975-4.11-11.857-6.42-5.345-3.255-5.345-3.255-11.334-3.397L70 33c2.733 3.191 6.252 4.996 9.875 7 4.074 2.282 8.135 4.573 12.125 7-.188 1.875-.188 1.875-1 4-2.125 1.5-2.125 1.5-5 2-2.6-1.065-4.64-2.427-7-4l1-2 2.188 1.5c2.96 1.58 4.525 1.782 7.812 1.5-3.675-4.32-8.333-6.607-13.25-9.25-.84-.459-1.68-.918-2.547-1.39A1191.853 1191.853 0 0 0 68 36c.58-3.037.77-3.809 3.25-5.875C74 29 74 29 76.102 29.625ZM98 55c2 3 2 3 1.992 4.96-1.518 3.121-3.862 4.029-6.867 5.665-1.07.59-2.14 1.18-3.242 1.79C88.93 67.936 87.98 68.46 87 69l-3 2h-3c-.285-2.277-.285-2.277 0-5 1.941-1.879 1.941-1.879 4.563-3.563l2.746-1.789C91.505 58.69 94.706 56.79 98 55ZM125 84c2.063.438 2.063.438 4 1l-1 2-1-1-.05 3.21C126 93 126 93 122.956 95.415c-1.368.76-2.751 1.496-4.144 2.211-1.55.851-3.098 1.704-4.645 2.559l-2.522 1.362c-4.738 2.603-9.373 5.382-14.021 8.141l-2.845 1.678c-5.742 3.39-11.401 6.863-16.952 10.56C76 123 76 123 74 123v-2c1.781-1.278 1.781-1.278 4.285-2.723l2.776-1.618 3.001-1.722 6.09-3.542 3.031-1.756a705.954 705.954 0 0 0 12.724-7.602c2.838-1.723 5.691-3.372 8.64-4.896 5.577-2.598 5.577-2.598 9.379-7.094.351-2.116.351-2.116.074-5.047l1-1ZM66 39c1.875 1.188 1.875 1.188 3 3 .188 3.188.188 3.188 0 6-1.672 1.148-1.672 1.148-4 2-2.578-.898-2.578-.898-5.25-2.375l-2.703-1.46L55 45v-4c3.757-3.204 6.34-3.418 11-2Z" fill="#B04304"/><path d="m30 83 1 3c1.983.715 3.987 1.373 6 2a149.287 149.287 0 0 1 6.352 3.625c.58.348 1.162.695 1.761 1.053 1.84 1.102 3.677 2.212 5.512 3.322a4001.18 4001.18 0 0 0 5.533 3.322c1.67 1.001 3.337 2.008 5.005 3.014 2.23 1.308 4.524 2.508 6.837 3.664v10c-3.99-.56-6.526-1.757-9.813-4.063l-2.394-1.66L54 109l3-1c2.262 1.215 2.262 1.215 4.688 2.938l2.449 1.714L66 114v-7l-2.004-.71c-3.852-1.658-7.343-3.759-10.934-5.915a5383.768 5383.768 0 0 0-6.811-4.047C40.871 93.154 35.433 90.082 30 87v-4Z" fill="#53C68C"/><path d="M37 72c2.438.375 2.438.375 5 1l1 2-4 1c.087 2.397.087 2.397 1 5 2.339 1.882 2.339 1.882 5.348 3.332l3.271 1.729 3.444 1.751 3.455 1.811A882.748 882.748 0 0 0 64 94l.148-2.152.227-2.785c.07-.917.14-1.834.21-2.778.138-.754.274-1.508.415-2.285l2-1v13c-6.985-.31-11.909-3.464-17.813-7l-5.644-3.313-2.5-1.488A68.734 68.734 0 0 0 37 82V72Z" fill="#E1E1E1"/><path d="m19 46 5 2v43l-4 2v-2h2l1-42h-2v12l-4-2 1-3-3-3h2v-3h2v-4Z" fill="#CDCDCD"/><path d="M70 43c2.92.68 5.351 1.581 8 3l-1 2-4-2c-.553 2.076-1 3.844-1 6l2.313.875C77 54 77 54 80 56c-1.025 2.703-2.005 4.004-4.25 5.875C73 63 73 63 70.312 62.563 65.665 60.37 61.358 57.713 57 55a1561.424 1561.424 0 0 0-5-3l1-2 1.557.95a600.868 600.868 0 0 0 7.068 4.175l2.45 1.496c4.923 2.95 4.923 2.95 10.51 2.684.798-.43 1.594-.861 2.415-1.305-1.682-1.766-2.998-2.999-5.188-4.125-2.286-2.366-2.067-3.344-2.062-6.563.064-1.438.142-2.876.25-4.312Z" fill="#DDD"/><path d="m41 56 9 3v9l-7-1v-2h-2v-9Z" fill="#E2E2E2"/><path d="m127 59 2 1v17h-4c-1.415-2.83-1.208-5.284-1.25-8.438l-.078-3.496C124 62 124 62 125.516 60.09L127 59Z" fill="#989898"/><path d="m54 31 1 4c-3.143 2.395-5.293 3.905-9.25 4.438L43 39l-2-3c8.262-5.74 8.262-5.74 13-5Z" fill="#D1D1D1"/><path d="m98 69 3 1C78.167 85 78.167 85 74 85v-9h3v6c3.314-1.977 6.626-3.957 9.938-5.938l2.865-1.708 2.724-1.631 2.524-1.508C96.929 70.146 96.929 70.146 98 69Z" fill="#D9D9D9"/><path d="m129 41-1 7h-2v-5h-2v2l-3.438 1.625c-4.134 2.045-7.834 4.523-11.582 7.203C107 55 107 55 104 55v-2c3.427-2.496 7.158-4.543 10.813-6.688l3.103-1.876 2.979-1.76 2.745-1.628C126 40 126 40 129 41Z" fill="#F5F5F5"/><path d="M120 58c.832 5.039 1.108 9.813 1.063 14.938l-.014 2.072c-.012 1.663-.03 3.327-.049 4.99h-1c-.962-6.374-1.107-12.56-1-19-3.775 1.54-7.274 3.116-10.75 5.25L105 68l-3-1c2.433-1.508 4.87-3.007 7.313-4.5l2.091-1.3 2.022-1.231 1.856-1.143C117 58 117 58 120 58Z" fill="#D5D5D5"/><path d="m127 38 2 2-1.984 1.066a473.75 473.75 0 0 0-18.582 10.614C106 53 106 53 104 53l-1 3c-2.063 1.188-2.063 1.188-4 2v-4a31950.48 31950.48 0 0 1 14.74-8.516l5.377-3.105 3.27-1.889A96.052 96.052 0 0 1 127 38Z" fill="#D4D5D4"/><path d="m43 30-12 7c3.356 2.517 6.626 4.6 10.25 6.688l3.266 1.886L47 47c-3 1-3 1-4.81.287l-1.983-1.158-2.158-1.24-2.236-1.327-2.272-1.314A804.483 804.483 0 0 1 28 39v-3c2.52-1.86 2.52-1.86 5.813-3.75l3.269-1.922C40 29 40 29 43 30Z" fill="#DBDBDB"/><path d="M32 45c3.308 1.268 6.41 2.681 9.512 4.39l2.534 1.394 2.642 1.466 2.7 1.491C55.335 57.04 61.228 60.401 67 64l-1 2-1.937-1.098c-2.958-1.677-5.917-3.352-8.876-5.027l-3.044-1.727A1227.44 1227.44 0 0 0 32 47v-2Z" fill="#DADADA"/><path d="M70 36c4.304.585 7.3 2.138 11 4.375l3.063 1.836L87 44l5 3c-.188 1.875-.188 1.875-1 4-2.125 1.5-2.125 1.5-5 2-2.6-1.065-4.64-2.427-7-4l1-2 2.188 1.5c2.96 1.58 4.525 1.782 7.812 1.5-3.504-4.02-7.63-6.244-12.25-8.75l-2.258-1.246C73.665 38.997 71.832 37.997 70 37v-1Z" fill="#B04304"/><path d="m35 50 14 7-2 2-2.313-1.063c-2.735-1.26-2.735-1.26-5.687.063-2.262-.777-2.262-.777-4.688-1.938l-2.449-1.152L30 54l2-2h3v-2Z" fill="#BFBFBF"/><path d="m102 89-2.125 1.137C96.905 91.738 93.953 93.368 91 95c-.817.43-1.635.859-2.477 1.3-4.488 2.432-4.488 2.432-6.523 7.013V106h-2c-.547-3.125-.547-3.125 0-7 2.572-2.575 5.589-4.23 8.75-6l2.5-1.52C97.982 87.54 97.982 87.54 102 89Z" fill="#CECECE"/><path d="m19 62 2 1c.861 12.902.861 12.902-2.5 16.813L16 82l-2-4 3-2c1.144-2.67.98-4.11.438-7-.471-3.229-.185-4.328 1.562-7Z" fill="#AEAEAE"/><path d="M59 74c2 2 2 2 2.195 4.383l-.07 2.742-.055 2.758L61 86c-4.115-.642-7.304-2.87-10.75-5.063l-1.824-1.142A987.527 987.527 0 0 1 44 77l1-2 13 8 1-9Z" fill="#DBDBDB"/><path d="M24 104c4.844.363 7.833 1.918 11.773 4.527 2.493 1.649 5.037 3.19 7.602 4.723l2.523 1.516A69.304 69.304 0 0 0 50 117v2c-3.556-1.342-6.791-2.922-10.082-4.82l-2.822-1.621-2.908-1.684-2.967-1.707A3497.751 3497.751 0 0 1 24 105v-1Z" fill="#D6D6D6"/><path d="M124 43h2v5l2 1-4-1v-2l-1.405.934a808.556 808.556 0 0 1-6.345 4.129l-2.21 1.47-2.15 1.377-1.967 1.286c-2.381.996-3.537.66-5.923-.196l2.195-1.172c6.301-3.356 6.301-3.356 12.305-7.203C121 45 121 45 124 45v-2Z" fill="#53C68C"/><path d="M50 119c4.234 1.31 8.074 2.944 12 5v2l2.688.875c7.855 2.668 7.855 2.668 10.312 5.125-2.188.75-2.188.75-5 1a219.89 219.89 0 0 1-5-4c-2.559-1.64-5.185-3.161-7.813-4.688A294.026 294.026 0 0 1 50 120v-1Z" fill="#D8D8D8"/><path d="M55 63c4.43 1.208 6.981 2.517 10 6-3.344-.557-6.033-1.352-9-3l-2 6 4 1-1 2-4-2c-.195-6.055-.195-6.055 0-8l2-2Z" fill="#DDD"/><path d="M94 27c3 1.688 3 1.688 6 4 .375 2.75.375 2.75 0 5l-5-1v-2h-2a99.984 99.984 0 0 1 0-5l1-1Z" fill="#D9D9D9"/><path d="M98 58c-1.427 3.606-2.958 4.865-6.375 6.625l-2.336 1.227C84.711 68.148 84.711 68.148 83 69c.129-1.766.129-1.766 1-4 2.652-1.922 2.652-1.922 5.938-3.75l3.277-1.86C96 58 96 58 98 58Z" fill="#F9F9F9"/><path d="m43 57 5 2v6h-4l-2-2c.375-3.125.375-3.125 1-6Z" fill="#FCFCFC"/><path d="M109 33c2.915 1.074 4.778 1.778 7 4-13.369 9-13.369 9-16 9v-2a101.051 101.051 0 0 1 6-3.625l3.375-1.914L112 37l-3-4Z" fill="#E2E2E2"/><path d="M125 84c2.063.438 2.063.438 4 1l-1 2-1-1 .063 3.188C126 93 126 93 123.93 94.578A89.16 89.16 0 0 1 117 98c1.742-3.898 1.742-3.898 4.063-4.813L123 92c.742-3.525.742-3.525 1-7l1-1Z" fill="#C7C7C7"/><path d="M20 40c4.814-.566 7.203 1.174 11 4l-1 2-7-4 1 1 2 2c-4.75-.875-4.75-.875-7-2l1-3Z" fill="#CCC"/><path d="m75 75 2 1v6l4-2-1 3c-3.063 1.188-3.063 1.188-6 2-.027-1.48-.046-2.958-.063-4.438l-.035-2.496C74 76 74 76 75 75Z" fill="#C8C8C8"/><path d="M70 43c3.104.776 5.25 1.527 8 3l-1 2-4-2c-.553 2.076-1 3.844-1 6l2 1-4-1v-9Z" fill="#B04304"/><path d="M15 67h2c2.215 5.415 2.215 5.415 1.125 8.375L17 77h-2V67Z" fill="#DDD"/><path d="M127 54c2 2 2 2 2 5h-2l-1 5c-2-2-2-2-2.313-4.438.36-2.955 1.025-3.75 3.313-5.562Z" fill="#DBDBDB"/><path d="m52 33-1 4-7 1-1-2c6.75-3 6.75-3 9-3Z" fill="#F6F6F6"/><path d="m15 95 5 1v5h-3v-2h-2v-4Z" fill="#CECECE"/><path d="M37 72c2.438.375 2.438.375 5 1l1 2-4 1v5l-2-1v-8Z" fill="#D7D7D7"/><path d="M20 50c1.176 3.674 1.074 7.17 1 11l-4-2c.308-1.314.622-2.626.938-3.938l.527-2.214C19 51 19 51 20 50Z" fill="#53C68C"/><path d="m16 83 4 2c-.313 1.938-.313 1.938-1 4l-3 1c-1-1-1-1-1.125-3.5C15 84 15 84 16 83Z" fill="#BFBFBF"/><path d="M111.297 81.316 113 82c-1.786 1.03-3.58 2.05-5.375 3.063l-3.023 1.722L102 88l-2-1a273.882 273.882 0 0 1 4.25-3.063l2.39-1.722C109 81 109 81 111.298 81.316Z" fill="#DBDBDB"/><path d="m125 71 4 1v5h-4v-6Z" fill="#C1C1C1"/><path d="m83 64 3 1-2 1v2l3 1c-3 2-3 2-6 2-.125-2.375-.125-2.375 0-5l2-2Z" fill="#CECECE"/><path d="m15 54 4 2-1 2h-1l-1 9h-1V54ZM104 51l1 2c-2.007 3.01-2.839 3.63-6 5v-4c2.5-1.75 2.5-1.75 5-3Z" fill="#B04304"/><path d="M94 40c4.8 2.462 4.8 2.462 5.813 5.188L100 47h-3v-4l-3-1v-2Z" fill="#53C68C"/></svg>